<mxfile host="app.diagrams.net" modified="2022-09-21T06:13:22.735Z" agent="5.0 (Windows NT 10.0; Win64; x64) AppleWebKit/537.36 (KHTML, like Gecko) Chrome/105.0.0.0 Safari/537.36" etag="Wz4eIEdbGX-plu0VpVz2" version="20.3.3" type="github">
  <diagram id="U8fBw9cnGg9C2ZoYhjs2" name="第 1 页">
    <mxGraphModel dx="2851" dy="1114" grid="1" gridSize="10" guides="1" tooltips="1" connect="1" arrows="1" fold="1" page="1" pageScale="1" pageWidth="827" pageHeight="1169" math="0" shadow="0">
      <root>
        <mxCell id="0" />
        <mxCell id="1" parent="0" />
        <mxCell id="vh3ysL2QiMOsPPidUQNz-1" value="确认业务过程" style="rounded=0;whiteSpace=wrap;html=1;" vertex="1" parent="1">
          <mxGeometry x="19" y="610" width="120" height="60" as="geometry" />
        </mxCell>
        <mxCell id="vh3ysL2QiMOsPPidUQNz-2" value="用户行为宽表" style="rounded=0;whiteSpace=wrap;html=1;" vertex="1" parent="1">
          <mxGeometry x="129" y="730" width="120" height="60" as="geometry" />
        </mxCell>
        <mxCell id="vh3ysL2QiMOsPPidUQNz-3" value="订单宽表" style="rounded=0;whiteSpace=wrap;html=1;" vertex="1" parent="1">
          <mxGeometry x="389" y="730" width="120" height="60" as="geometry" />
        </mxCell>
        <mxCell id="vh3ysL2QiMOsPPidUQNz-5" value="声明粒度" style="rounded=0;whiteSpace=wrap;html=1;" vertex="1" parent="1">
          <mxGeometry x="189" y="610" width="120" height="60" as="geometry" />
        </mxCell>
        <mxCell id="vh3ysL2QiMOsPPidUQNz-8" style="edgeStyle=orthogonalEdgeStyle;rounded=0;orthogonalLoop=1;jettySize=auto;html=1;entryX=0;entryY=0.5;entryDx=0;entryDy=0;" edge="1" parent="1" source="vh3ysL2QiMOsPPidUQNz-6" target="vh3ysL2QiMOsPPidUQNz-7">
          <mxGeometry relative="1" as="geometry" />
        </mxCell>
        <mxCell id="vh3ysL2QiMOsPPidUQNz-6" value="上游数据" style="rounded=0;whiteSpace=wrap;html=1;" vertex="1" parent="1">
          <mxGeometry x="50" y="240" width="120" height="60" as="geometry" />
        </mxCell>
        <mxCell id="vh3ysL2QiMOsPPidUQNz-16" style="edgeStyle=orthogonalEdgeStyle;rounded=0;orthogonalLoop=1;jettySize=auto;html=1;" edge="1" parent="1" source="vh3ysL2QiMOsPPidUQNz-7" target="vh3ysL2QiMOsPPidUQNz-15">
          <mxGeometry relative="1" as="geometry" />
        </mxCell>
        <mxCell id="vh3ysL2QiMOsPPidUQNz-7" value="flume" style="rounded=0;whiteSpace=wrap;html=1;" vertex="1" parent="1">
          <mxGeometry x="284" y="240" width="120" height="60" as="geometry" />
        </mxCell>
        <mxCell id="vh3ysL2QiMOsPPidUQNz-9" value="tardir source" style="text;html=1;align=center;verticalAlign=middle;resizable=0;points=[];autosize=1;strokeColor=none;fillColor=none;" vertex="1" parent="1">
          <mxGeometry x="230" y="315" width="90" height="30" as="geometry" />
        </mxCell>
        <mxCell id="vh3ysL2QiMOsPPidUQNz-10" value="kafka channel" style="text;html=1;align=center;verticalAlign=middle;resizable=0;points=[];autosize=1;strokeColor=none;fillColor=none;" vertex="1" parent="1">
          <mxGeometry x="335" y="315" width="100" height="30" as="geometry" />
        </mxCell>
        <mxCell id="vh3ysL2QiMOsPPidUQNz-12" value="etl 拦截器" style="text;html=1;align=center;verticalAlign=middle;resizable=0;points=[];autosize=1;strokeColor=none;fillColor=none;" vertex="1" parent="1">
          <mxGeometry x="300" y="190" width="80" height="30" as="geometry" />
        </mxCell>
        <mxCell id="vh3ysL2QiMOsPPidUQNz-13" value="确认维度" style="rounded=0;whiteSpace=wrap;html=1;" vertex="1" parent="1">
          <mxGeometry x="379" y="610" width="120" height="60" as="geometry" />
        </mxCell>
        <mxCell id="vh3ysL2QiMOsPPidUQNz-14" value="确认事实" style="rounded=0;whiteSpace=wrap;html=1;" vertex="1" parent="1">
          <mxGeometry x="549" y="610" width="120" height="60" as="geometry" />
        </mxCell>
        <mxCell id="vh3ysL2QiMOsPPidUQNz-17" style="edgeStyle=orthogonalEdgeStyle;rounded=0;orthogonalLoop=1;jettySize=auto;html=1;entryX=0;entryY=0.5;entryDx=0;entryDy=0;" edge="1" parent="1" source="vh3ysL2QiMOsPPidUQNz-15" target="vh3ysL2QiMOsPPidUQNz-18">
          <mxGeometry relative="1" as="geometry">
            <mxPoint x="710" y="270" as="targetPoint" />
          </mxGeometry>
        </mxCell>
        <mxCell id="vh3ysL2QiMOsPPidUQNz-15" value="kafka" style="rounded=0;whiteSpace=wrap;html=1;" vertex="1" parent="1">
          <mxGeometry x="480" y="240" width="120" height="60" as="geometry" />
        </mxCell>
        <mxCell id="vh3ysL2QiMOsPPidUQNz-18" value="hdfs" style="rounded=0;whiteSpace=wrap;html=1;" vertex="1" parent="1">
          <mxGeometry x="740" y="240" width="120" height="60" as="geometry" />
        </mxCell>
        <mxCell id="vh3ysL2QiMOsPPidUQNz-20" style="edgeStyle=orthogonalEdgeStyle;rounded=0;orthogonalLoop=1;jettySize=auto;html=1;entryX=0.5;entryY=0;entryDx=0;entryDy=0;" edge="1" parent="1" source="vh3ysL2QiMOsPPidUQNz-19" target="vh3ysL2QiMOsPPidUQNz-18">
          <mxGeometry relative="1" as="geometry" />
        </mxCell>
        <mxCell id="vh3ysL2QiMOsPPidUQNz-19" value="mysql&amp;lt;业务数据&amp;gt;" style="rounded=0;whiteSpace=wrap;html=1;" vertex="1" parent="1">
          <mxGeometry x="284" y="30" width="120" height="60" as="geometry" />
        </mxCell>
        <mxCell id="vh3ysL2QiMOsPPidUQNz-21" value="ODS" style="text;html=1;strokeColor=none;fillColor=none;align=center;verticalAlign=middle;whiteSpace=wrap;rounded=0;" vertex="1" parent="1">
          <mxGeometry x="1030" y="255" width="60" height="30" as="geometry" />
        </mxCell>
        <mxCell id="vh3ysL2QiMOsPPidUQNz-22" value="近30天用户消费行为" style="rounded=0;whiteSpace=wrap;html=1;" vertex="1" parent="1">
          <mxGeometry x="-40" y="860" width="120" height="60" as="geometry" />
        </mxCell>
        <mxCell id="vh3ysL2QiMOsPPidUQNz-23" value="留存率" style="rounded=0;whiteSpace=wrap;html=1;" vertex="1" parent="1">
          <mxGeometry x="164" y="860" width="120" height="60" as="geometry" />
        </mxCell>
        <mxCell id="vh3ysL2QiMOsPPidUQNz-24" value="商品退货排名" style="rounded=0;whiteSpace=wrap;html=1;" vertex="1" parent="1">
          <mxGeometry x="369" y="860" width="120" height="60" as="geometry" />
        </mxCell>
        <mxCell id="vh3ysL2QiMOsPPidUQNz-25" value="一周内连续三天消费的用户" style="rounded=0;whiteSpace=wrap;html=1;" vertex="1" parent="1">
          <mxGeometry x="570" y="860" width="170" height="60" as="geometry" />
        </mxCell>
      </root>
    </mxGraphModel>
  </diagram>
</mxfile>
